<svg width="24" height="24" viewBox="0 0 24 24" fill="none" xmlns="http://www.w3.org/2000/svg">
<path d="M12.0238 0H11.9692C5.35878 0 0 5.36035 0 11.9727V12.0273C0 18.6397 5.35878 24 11.9692 24H12.0238C18.6342 24 23.9929 18.6397 23.9929 12.0273V11.9727C23.9929 5.36035 18.6342 0 12.0238 0Z" fill="#007EBB"/>
<path d="M5.72288 7.97893C5.40681 7.68548 5.24963 7.32224 5.24963 6.89005C5.24963 6.45786 5.40765 6.07864 5.72288 5.78435C6.03894 5.4909 6.44578 5.34375 6.94425 5.34375C7.44272 5.34375 7.8336 5.4909 8.14882 5.78435C8.46489 6.0778 8.62207 6.44693 8.62207 6.89005C8.62207 7.33317 8.46405 7.68548 8.14882 7.97893C7.83276 8.27238 7.4318 8.41953 6.94425 8.41953C6.45671 8.41953 6.03894 8.27238 5.72288 7.97893ZM8.35645 9.66229V18.6592H5.51441V9.66229H8.35645Z" fill="#FEFFFC"/>
<path d="M17.817 10.552C18.4365 11.2246 18.7458 12.1479 18.7458 13.3234V18.5012H16.0467V13.6883C16.0467 13.0955 15.8929 12.6347 15.5861 12.3068C15.2793 11.9789 14.8657 11.8141 14.3479 11.8141C13.8301 11.8141 13.4165 11.978 13.1097 12.3068C12.8029 12.6347 12.649 13.0955 12.649 13.6883V18.5012H9.93396V9.63798H12.649V10.8135C12.9239 10.4216 13.2946 10.1122 13.7603 9.88435C14.226 9.65648 14.7497 9.54297 15.3322 9.54297C16.3695 9.54297 17.1983 9.8793 17.817 10.552Z" fill="#FEFFFC"/>
</svg>
