<svg width="24" height="25" viewBox="0 0 24 25" fill="none" xmlns="http://www.w3.org/2000/svg">
<rect x="0.5" y="0.521484" width="23" height="23" rx="11.5" fill="white"/>
<rect x="0.5" y="0.521484" width="23" height="23" rx="11.5" stroke="#D6E8F6"/>
<path d="M14.3629 12.4991L14.0347 12.1708C14.0854 12.1124 14.1325 12.051 14.1759 11.987C14.3682 11.7199 14.5064 11.4177 14.5829 11.0975C14.633 10.8901 14.6583 10.6774 14.6583 10.464C14.6583 9.93808 14.5023 9.42392 14.2101 8.98664C13.9178 8.54936 13.5024 8.2086 13.0164 8.00747C12.5304 7.80634 11.9956 7.75388 11.4798 7.85673C10.964 7.95958 10.4903 8.21312 10.1186 8.58526C9.74692 8.95741 9.49396 9.43144 9.39175 9.94738C9.28954 10.4633 9.34266 10.998 9.54438 11.4837C9.74611 11.9695 10.0874 12.3845 10.525 12.6762C10.9627 12.968 11.477 13.1233 12.003 13.1227C12.2164 13.1227 12.429 13.0973 12.6365 13.0472C12.9566 12.9707 13.2588 12.8325 13.526 12.6402C13.5883 12.5975 13.6474 12.5516 13.7065 12.5023L14.0347 12.8306C13.9756 12.8831 13.9166 12.929 13.8575 12.975L15.1704 14.2879C15.2295 14.2419 15.2853 14.1927 15.3443 14.1402C15.4559 14.0352 15.5653 13.9257 15.6726 13.812L15.8236 13.638L14.5106 12.3251L14.3629 12.4991ZM13.5128 11.3273C13.4771 11.397 13.4331 11.462 13.3815 11.5209C13.2886 11.6457 13.1781 11.7562 13.0533 11.8492C12.9941 11.8978 12.9303 11.9406 12.8629 11.9772C12.6018 12.1288 12.305 12.2081 12.003 12.2069C11.9282 12.2081 11.8536 12.2026 11.7798 12.1905C11.4572 12.1492 11.1526 12.0183 10.9007 11.8127C10.6487 11.6071 10.4595 11.3349 10.3544 11.0271C10.2493 10.7194 10.2326 10.3883 10.3061 10.0715C10.3797 9.7547 10.5406 9.46487 10.7706 9.23491C11.0005 9.00494 11.2904 8.84404 11.6072 8.77048C11.9239 8.69691 12.255 8.71362 12.5628 8.81872C12.8706 8.92381 13.1427 9.11307 13.3484 9.36503C13.554 9.61699 13.6849 9.92154 13.7262 10.2441C13.7328 10.3184 13.7328 10.3931 13.7262 10.4673C13.7322 10.7678 13.6586 11.0645 13.5128 11.3273Z" fill="url(#paint0_linear_20176_318134)"/>
<path d="M12.003 5.50781C10.6885 5.50781 9.42787 6.02999 8.4984 6.95946C7.56893 7.88893 7.04675 9.14957 7.04675 10.464V17.8787L7.96579 18.5352V13.3295C8.66899 14.3225 9.71314 15.022 10.8991 15.2944C12.085 15.5668 13.3297 15.3931 14.3958 14.8065L13.7131 14.1074C12.8523 14.5103 11.877 14.5969 10.9586 14.3519C10.0403 14.107 9.23773 13.5461 8.692 12.768C8.14628 11.9898 7.89233 11.0442 7.97482 10.0973C8.0573 9.15047 8.47094 8.263 9.143 7.59093C9.81507 6.91887 10.7025 6.50524 11.6494 6.42275C12.5962 6.34026 13.5419 6.59421 14.32 7.13993C15.0982 7.68566 15.659 8.48823 15.904 9.40656C16.149 10.3249 16.0624 11.3002 15.6594 12.161L16.3422 12.8437C16.7559 12.0897 16.9663 11.2409 16.9524 10.381C16.9386 9.521 16.701 8.67946 16.2631 7.93919C15.8253 7.19891 15.2022 6.58542 14.4552 6.1591C13.7082 5.73277 12.8631 5.50831 12.003 5.50781Z" fill="url(#paint1_linear_20176_318134)"/>
<defs>
<linearGradient id="paint0_linear_20176_318134" x1="19.4409" y1="3.16619" x2="-2.31013" y2="19.7062" gradientUnits="userSpaceOnUse">
<stop stop-color="#03A9F4"/>
<stop offset="0.06" stop-color="#03A3EB"/>
<stop offset="0.16" stop-color="#039BE0"/>
<stop offset="0.28" stop-color="#0398DC"/>
<stop offset="0.67" stop-color="#0071C5"/>
<stop offset="1" stop-color="#005A9E"/>
</linearGradient>
<linearGradient id="paint1_linear_20176_318134" x1="16.5719" y1="5.75727" x2="5.33669" y2="16.9892" gradientUnits="userSpaceOnUse">
<stop stop-color="#03A9F4"/>
<stop offset="0.06" stop-color="#03A3EB"/>
<stop offset="0.16" stop-color="#039BE0"/>
<stop offset="0.28" stop-color="#0398DC"/>
<stop offset="0.67" stop-color="#0071C5"/>
<stop offset="1" stop-color="#005A9E"/>
</linearGradient>
</defs>
</svg>
