<svg width="24" height="25" viewBox="0 0 24 25" fill="none" xmlns="http://www.w3.org/2000/svg">
<path d="M0 12.0215C0 5.39407 5.37258 0.0214844 12 0.0214844V0.0214844C18.6274 0.0214844 24 5.39407 24 12.0215V12.0215C24 18.6489 18.6274 24.0215 12 24.0215V24.0215C5.37258 24.0215 0 18.6489 0 12.0215V12.0215Z" fill="#F2F8FC"/>
<path d="M19.1349 8.07963C18.4677 7.34181 17.3531 6.9729 15.7362 6.9729H15.5479V6.9415C15.5479 5.62285 15.5479 3.99023 12.5966 3.99023H11.4035C8.45225 3.99023 8.45225 5.6307 8.45225 6.9415V6.98075H8.26387C6.6391 6.98075 5.53237 7.34966 4.8652 8.08748C4.08814 8.95088 4.11168 10.1125 4.19017 10.9053L4.19802 10.9603L4.25882 11.5986C4.27001 11.7162 4.33333 11.8224 4.43214 11.887C4.62037 12.0102 4.93539 12.2132 5.12422 12.3182C5.23411 12.3888 5.35184 12.4516 5.46958 12.5144C6.81178 13.2522 8.28741 13.7467 9.7866 13.99C9.85724 14.7278 10.1791 15.5912 11.898 15.5912C13.617 15.5912 13.9545 14.7357 14.0094 13.9743C15.6106 13.7153 17.1569 13.158 18.5541 12.3417C18.6012 12.3182 18.6326 12.2946 18.6718 12.2711C18.9832 12.0951 19.3063 11.8782 19.6007 11.6658C19.6894 11.6018 19.7462 11.5028 19.7582 11.3941L19.7707 11.2821L19.8099 10.9132C19.8178 10.8661 19.8178 10.8268 19.8256 10.7719C19.8884 9.97911 19.8727 8.89594 19.1349 8.07963ZM12.8556 13.4563C12.8556 14.2883 12.8556 14.4139 11.8902 14.4139C10.9247 14.4139 10.9247 14.2647 10.9247 13.4641V12.4751H12.8556V13.4563ZM9.57467 6.9729V6.9415C9.57467 5.60715 9.57467 5.11266 11.4035 5.11266H12.5966C14.4254 5.11266 14.4254 5.615 14.4254 6.9415V6.98075H9.57467V6.9729Z" fill="#0071C5"/>
<path d="M18.9649 13.3832C19.2424 13.2511 19.5621 13.4711 19.5343 13.7772L19.2526 16.8806C19.0877 18.4504 18.4441 20.0516 14.9905 20.0516H9.00946C5.55585 20.0516 4.91222 18.4504 4.74739 16.8885L4.47996 13.9467C4.45245 13.6442 4.76481 13.4244 5.0416 13.5497C5.93594 13.9543 7.58673 14.6722 8.60646 14.9393C8.73543 14.973 8.83974 15.0653 8.89621 15.1861C9.37263 16.205 10.4059 16.7472 11.8979 16.7472C13.3752 16.7472 14.4216 16.1841 14.8995 15.1627C14.9561 15.0419 15.0605 14.9496 15.1896 14.9156C16.2724 14.6307 18.0295 13.8283 18.9649 13.3832Z" fill="#0071C5"/>
</svg>
