<svg width="25" height="25" viewBox="0 0 25 25" fill="none" xmlns="http://www.w3.org/2000/svg">
<path d="M0.5 12.5C0.5 5.87258 5.87258 0.5 12.5 0.5V0.5C19.1274 0.5 24.5 5.87258 24.5 12.5V12.5C24.5 19.1274 19.1274 24.5 12.5 24.5V24.5C5.87258 24.5 0.5 19.1274 0.5 12.5V12.5Z" fill="#F2F8FC"/>
<path d="M17.6132 9.67672C17.1351 9.14797 16.3363 8.88359 15.1776 8.88359H15.0426V8.86109C15.0426 7.91609 15.0426 6.74609 12.9276 6.74609H12.0726C9.95758 6.74609 9.95758 7.92172 9.95758 8.86109V8.88922H9.82258C8.65821 8.88922 7.86508 9.15359 7.38696 9.68234C6.83008 10.3011 6.84696 11.1336 6.90321 11.7017L6.90883 11.7411L6.9524 12.1986C6.96042 12.2828 7.0058 12.3589 7.07661 12.4053C7.2115 12.4935 7.43726 12.639 7.57258 12.7142C7.65133 12.7648 7.73571 12.8098 7.82008 12.8548C8.78196 13.3836 9.83946 13.738 10.9138 13.9123C10.9645 14.4411 11.1951 15.0598 12.427 15.0598C13.6588 15.0598 13.9007 14.4467 13.9401 13.9011C15.0876 13.7155 16.1957 13.3161 17.197 12.7311C17.2307 12.7142 17.2532 12.6973 17.2813 12.6805C17.5045 12.5543 17.736 12.3989 17.947 12.2467C18.0106 12.2008 18.0513 12.1299 18.0599 12.052L18.0688 11.9717L18.097 11.7073C18.1026 11.6736 18.1026 11.6455 18.1082 11.6061C18.1532 11.038 18.142 10.2617 17.6132 9.67672ZM13.1132 13.5298C13.1132 14.1261 13.1132 14.2161 12.4213 14.2161C11.7295 14.2161 11.7295 14.1092 11.7295 13.5355V12.8267H13.1132V13.5298ZM10.762 8.88359V8.86109C10.762 7.90484 10.762 7.55047 12.0726 7.55047H12.9276C14.2382 7.55047 14.2382 7.91047 14.2382 8.86109V8.88922H10.762V8.88359Z" fill="#0071C5"/>
<path d="M17.4914 13.4759C17.6903 13.3812 17.9193 13.5389 17.8994 13.7582L17.6975 15.9823C17.5794 17.1073 17.1182 18.2548 14.6432 18.2548H10.3569C7.88191 18.2548 7.42066 17.1073 7.30253 15.9879L7.11088 13.8797C7.09117 13.6629 7.31502 13.5054 7.51338 13.5952C8.1543 13.8852 9.33732 14.3996 10.0681 14.591C10.1605 14.6152 10.2353 14.6814 10.2757 14.7679C10.6172 15.4981 11.3577 15.8866 12.4269 15.8866C13.4856 15.8866 14.2354 15.4832 14.578 14.7512C14.6185 14.6646 14.6933 14.5984 14.7858 14.5741C15.5618 14.3699 16.821 13.7948 17.4914 13.4759Z" fill="#0071C5"/>
</svg>
